<?xml version="1.0" encoding="UTF-8" standalone="no"?>
<!DOCTYPE svg PUBLIC "-//W3C//DTD SVG 1.1//EN" "http://www.w3.org/Graphics/SVG/1.1/DTD/svg11.dtd">
<svg width="100%" height="100%" viewBox="0 0 24 24" version="1.1" xmlns="http://www.w3.org/2000/svg" xmlns:xlink="http://www.w3.org/1999/xlink" xml:space="preserve" xmlns:serif="http://www.serif.com/" style="fill-rule:evenodd;clip-rule:evenodd;stroke-linejoin:round;stroke-miterlimit:2;">
    <g transform="matrix(1,0,0,1,-59.3685,0)">
        <g id="Artboard1" transform="matrix(1.45947,0,0,1.45947,59.3685,0)">
            <rect x="0" y="0" width="16.444" height="16.444" style="fill:none;"/>
            <g transform="matrix(0.750657,0,0,0.750657,-775.06,-635.649)">
                <path d="M1047.94,855.66L1051.11,853.829C1051.52,853.592 1052.03,853.592 1052.44,853.829C1052.85,854.067 1053.11,854.507 1053.11,854.982L1053.11,862.324C1053.11,862.79 1052.86,863.222 1052.46,863.463L1044.15,868.483C1043.73,868.737 1043.2,868.739 1042.78,868.489L1034.59,863.622C1034.19,863.385 1033.94,862.957 1033.93,862.493L1033.82,852.96C1033.81,852.479 1034.07,852.032 1034.48,851.791L1042.8,846.991C1043.21,846.753 1043.72,846.753 1044.13,846.991L1048.95,849.774C1049.58,850.141 1049.8,850.956 1049.43,851.592C1049.07,852.228 1048.25,852.447 1047.62,852.079L1043.46,849.681L1036.49,853.707L1036.59,861.714L1043.46,865.792L1050.44,861.572L1050.44,857.288L1048.29,858.531C1047.89,860.885 1045.83,862.678 1043.36,862.678C1040.61,862.678 1038.36,860.438 1038.36,857.679C1038.36,854.919 1040.61,852.679 1043.36,852.679C1045.41,852.679 1047.16,853.905 1047.94,855.66ZM1043.43,854.119L1042.57,856.769L1039.79,856.769L1042.04,858.407L1041.18,861.058L1043.43,859.42L1045.69,861.058L1044.83,858.407L1047.08,856.769L1044.29,856.769L1043.43,854.119Z"/>
            </g>
        </g>
    </g>
</svg>
